<svg width="334" height="86" viewBox="0 0 334 86" fill="none" xmlns="http://www.w3.org/2000/svg">
<rect width="333.762" height="86" fill="#F18415"/>
<path d="M61.8586 36.2817C68.284 36.2817 69.7296 39.0726 69.7296 42.5536C69.7296 46.2434 67.981 48.8869 61.8852 48.8869C55.8284 48.8869 54.0776 46.397 54.0776 42.5536C54.0776 38.7716 55.986 36.2817 61.8586 36.2817Z" fill="white"/>
<path d="M129.008 36.2817C135.434 36.2817 136.879 39.0726 136.879 42.5536C136.879 46.2434 135.128 48.8869 129.035 48.8869C122.98 48.8869 121.227 46.397 121.227 42.5536C121.227 38.7716 123.136 36.2817 129.008 36.2817Z" fill="white"/>
<path fill-rule="evenodd" clip-rule="evenodd" d="M4.96912 78.8333V6.23907H329.677V78.8333H4.96912ZM159.724 74.7381H325.582V10.3343H159.724V74.7381ZM61.8893 55.0666C73.2966 55.0666 78.0921 50.1462 78.0921 42.4614C78.0921 34.6518 72.6905 30.0099 61.8893 30.0099C51.254 30.0099 45.6558 35.0511 45.6558 42.4614C45.6558 50.8239 51.5284 55.0666 61.8893 55.0666ZM22.229 30.5627V54.698H45.2524V48.2705H30.5587V30.5627H22.229ZM103.859 54.698L103.644 52.3596C100.858 54.3483 97.4661 55.3053 94.0513 55.0666C88.9179 55.0666 84.6425 53.5288 82.2447 50.4246C80.6631 48.1583 79.8645 45.4379 79.9698 42.6764C79.8799 39.973 80.7061 37.3184 82.3143 35.1433C84.7407 32.1312 89.139 30.1327 95.6873 30.1327C103.22 30.1327 107.647 32.4384 109.552 36.3125C109.96 37.2249 110.201 38.2036 110.26 39.2016H102.291C102.09 38.5951 101.716 38.0607 101.216 37.6639C99.6284 36.6114 97.7327 36.1247 95.8347 36.2817C94.7215 36.1468 93.592 36.2496 92.5215 36.5836C91.451 36.9175 90.4634 37.4749 89.6243 38.2188C88.6714 39.5231 88.2239 41.1289 88.365 42.7379C88.2545 44.273 88.6658 45.8005 89.5322 47.0727C90.3789 47.8616 91.3855 48.4591 92.4834 48.8252C93.5815 49.1912 94.7452 49.3171 95.8962 49.194C98.1819 49.3799 100.451 48.6749 102.229 47.2263C102.611 46.7488 102.875 46.1873 102.997 45.5882H94.4219V40.4016H110.469V54.698H103.859ZM129.039 55.0666C140.444 55.0666 145.242 50.1462 145.242 42.4614C145.242 34.6518 139.832 30.0099 129.039 30.0099C118.404 30.0099 112.805 35.0511 112.805 42.4614C112.805 50.8239 118.678 55.0666 129.039 55.0666Z" fill="white"/>
<path d="M173.755 54.6059V30.4706H179.693V54.6059H173.755Z" fill="white"/>
<path d="M210.186 44.5214C208.681 46.4891 206.091 47.388 202.44 47.4106C201.67 47.4106 191.463 47.3798 191.463 47.3798V54.6059H185.651V30.4706H202.442C203.788 30.3283 205.149 30.471 206.435 30.8894C207.723 31.3079 208.906 31.9926 209.912 32.8991C211.239 34.6277 211.884 36.783 211.726 38.9559C211.861 40.9323 211.318 42.8958 210.186 44.5214ZM205.421 36.6524C204.807 35.7309 203.482 35.219 201.24 35.219H191.432V42.5659H201.177C203.574 42.5659 204.838 42.0745 205.421 41.1203C205.767 40.448 205.917 39.691 205.851 38.9375C205.902 38.1516 205.755 37.3656 205.421 36.6524Z" fill="white"/>
<path d="M228.85 54.9745C217.903 54.9745 214.554 50.8792 214.554 46.827H220.764C220.764 48.8255 223.5 50.3325 229.127 50.3325C234.721 50.3325 236.197 49.3476 236.197 47.7484C236.197 45.965 235.091 45.4121 229.894 44.8285C228.871 44.7364 226.084 44.3985 225.037 44.245C217.666 43.4136 214.828 41.2309 214.828 37.3261C214.828 33.2062 218.981 30.1021 227.988 30.1021C237.765 30.1021 241.517 33.9454 241.517 37.9424H235.374C235.374 35.9132 233.068 34.744 227.626 34.744C222.029 34.744 220.832 35.5119 220.832 37.0189C220.832 38.5874 222.06 39.0788 227.998 39.7852C229.352 39.9716 232.364 40.3094 233.193 40.3995C239.467 41.0445 242.295 43.3194 242.295 47.3471C242.284 52.1447 237.98 54.9745 228.85 54.9745Z" fill="white"/>
<path d="M259.782 54.9438C251.759 54.9438 246.531 51.7761 246.531 45.1152V30.4706H252.402V45.1971C252.402 48.2419 254.894 50.269 260.027 50.269C264.669 50.269 267.438 48.3648 267.438 45.1971V30.4706H273.249V45.6619C273.249 51.7167 268.39 54.9438 259.782 54.9438Z" fill="white"/>
<path d="M305.069 54.6059V38.4952L297.535 54.6059H291.818L284.5 38.4952V54.6059H278.972V30.4706H286.462L294.763 48.8562L303.248 30.4706H310.62V54.6059H305.069Z" fill="white"/>
</svg>
